<?xml version="1.0" ?><svg viewBox="0 0 64 64" xmlns="http://www.w3.org/2000/svg"><title/><g data-name="Medal" id="Medal-3"><path d="M52,3V18a19.939,19.939,0,0,1-4.51,12.63.9711.9711,0,0,1-.77.37,1.0222,1.0222,0,0,1-.78-.37,17.972,17.972,0,0,0-27.88,0,1.0222,1.0222,0,0,1-.78.37.9711.9711,0,0,1-.77-.37A19.939,19.939,0,0,1,12,18V3a1.0029,1.0029,0,0,1,1-1H51A1.0029,1.0029,0,0,1,52,3Z" style="fill:#d9455f"/><path d="M40,2V25.88a17.9613,17.9613,0,0,0-16,0V2Z" style="fill:#5c2a9d"/><path d="M47.4951,29.3682A19.99,19.99,0,1,0,52,42,19.9135,19.9135,0,0,0,47.4951,29.3682Z" style="fill:#ffbd69"/><path d="M45.2129,37.8413a2.0007,2.0007,0,0,0-1.5181-1.3442L37.042,35.1953,33.748,29.27a2,2,0,0,0-3.496,0l-3.294,5.9253-6.6528,1.3018a2,2,0,0,0-1.0806,3.3247l4.6172,4.9638-.8179,6.73A2,2,0,0,0,25.8525,53.57L32,50.7124,38.1475,53.57a2,2,0,0,0,2.8286-2.0547l-.8179-6.7295,4.6167-4.9638A2.0011,2.0011,0,0,0,45.2129,37.8413Z" style="fill:#f37121"/></g></svg>